<?xml version="1.0" encoding="UTF-8" standalone="yes"?>
<svg version="1.1" id="Layer_1" xmlns:x="&amp;ns_extend;" xmlns:i="&amp;ns_ai;" xmlns:graph="&amp;ns_graphs;" xmlns="http://www.w3.org/2000/svg" xmlns:xlink="http://www.w3.org/1999/xlink" x="0px" y="0px" viewBox="0 0 315 314.9976501" style="enable-background:new 0 0 315 314.9976501;" xml:space="preserve">
      <style type="text/css">.st0{fill:url(#SVGID_1_);}	.st1{fill:url(#SVGID_00000133530075137130147010000014990572905975937977_);}	.st2{fill:url(#SVGID_00000045602138127712063470000004800517138776656777_);}	.st3{fill:url(#SVGID_00000112634964216946980610000004379520851741719223_);}</style>
    <metadata>
              <sfw>
                      <slices/>
            <sliceSourceBounds bottomLeftOrigin="true" height="314.9976501" width="315" x="-4.7315845" y="-314.9988403"/>
                  </sfw>
          </metadata>
    <g id="color_index_g">
              <linearGradient id="SVGID_1_" gradientUnits="userSpaceOnUse" x1="139.1267395" y1="161.1716919" x2="-1.0449889" y2="161.0757904">
                      <stop offset="0" style="stop-color:rgba(2, 235, 189, 1)"/>
            <stop offset="1" style="stop-color:rgba(0, 145, 244, 1)"/>
                  </linearGradient>
        <linearGradient id="SVGID_00000002361220466839203610000006476081916600543664_" gradientUnits="userSpaceOnUse" x1="154.1460266" y1="116.3365326" x2="153.907959" y2="18.5677261">
                      <stop offset="0" style="stop-color:rgba(2, 235, 189, 1)"/>
            <stop offset="1" style="stop-color:rgba(0, 145, 244, 1)"/>
                  </linearGradient>
        <linearGradient id="SVGID_00000000917530755132403430000016226374094296296101_" gradientUnits="userSpaceOnUse" x1="174.8616638" y1="153.8837738" x2="315" y2="153.8837738">
                      <stop offset="0" style="stop-color:rgba(2, 235, 189, 1)"/>
            <stop offset="1" style="stop-color:rgba(0, 145, 244, 1)"/>
                  </linearGradient>
        <linearGradient id="SVGID_00000035498058292582882600000015574550634429728165_" gradientUnits="userSpaceOnUse" x1="160.4785461" y1="177.2502289" x2="161.8590851" y2="316.895813">
                      <stop offset="0" style="stop-color:rgba(2, 235, 189, 1)"/>
            <stop offset="1" style="stop-color:rgba(0, 145, 244, 1)"/>
                  </linearGradient>
        <path class="st0" d="M105.2083206,175.0683899H60.4398727c-17.2807388,0-31.4195232-14.1387787-31.4195232-31.4195251v-0.0000763&#x9;&#x9;c0-17.2806778,14.1387691-31.4194412,31.4195232-31.4194412H48.8844872C21.9980202,112.2293472,0,134.2273712,0,161.1138306&#x9;&#x9;v0.0001068c0,26.8864746,21.9980316,48.8845062,48.8845139,48.8845062h91.2538223v-0.0000305&#x9;&#x9;C140.1383362,190.7070923,124.4996414,175.0683899,105.2083206,175.0683899z"/>
        <path style="fill:url(#SVGID_00000002361220466839203610000006476081916600543664_);" d="M140.1383209,105.2083206V60.4398727&#x9;&#x9;c0-17.2807388,14.1387787-31.4195232,31.4195251-31.4195232h0.000061c17.2806854,0,31.4194641,14.1387691,31.4194641,31.4195232&#x9;&#x9;V48.8844872C202.9773712,21.9980202,180.9793396,0,154.0928802,0h-0.0001068&#x9;&#x9;c-26.8864746,0-48.8845062,21.9980316-48.8845062,48.8845139v91.2538223h0.0000305&#x9;&#x9;C124.4996185,140.1383362,140.1383209,124.4996414,140.1383209,105.2083206z"/>
        <path style="fill:url(#SVGID_00000000917530755132403430000016226374094296296101_);" d="M209.7916718,139.9292755h44.7684479&#x9;&#x9;c17.2807312,0,31.4195251,14.1387787,31.4195251,31.4195251v0.000061c0,17.2806854-14.1387634,31.4194641-31.4195251,31.4194641&#x9;&#x9;h11.5553894c26.8864746,0,48.884491-21.9980316,48.884491-48.884491v-0.0001068&#x9;&#x9;c0-26.8864746-21.9980164-48.8845062-48.8845215-48.8845062h-91.2538147v0.0000381&#x9;&#x9;C174.8616638,124.2905731,190.5003662,139.9292755,209.7916718,139.9292755z"/>
        <path style="fill:url(#SVGID_00000035498058292582882600000015574550634429728165_);" d="M174.8616791,209.7893372v44.7684479&#x9;&#x9;c0,17.2807465-14.1387787,31.4195404-31.4195251,31.4195404h-0.000061c-17.2806931,0-31.4194565-14.1387939-31.4194565-31.4195404&#x9;&#x9;v11.5554047c0,26.8864441,21.998024,48.8844604,48.8844833,48.8844604h0.0001068&#x9;&#x9;c26.8864746,0,48.8845062-21.9980164,48.8845062-48.884491v-91.25383h-0.0000305&#x9;&#x9;C190.5003815,174.8593292,174.8616791,190.4980316,174.8616791,209.7893372z"/>
          </g>
  </svg>